{
    "accessors" : [
        {
            "bufferView" : 0,
            "componentType" : 5123,
            "count" : 816,
            "max" : [
                691
            ],
            "min" : [
                0
            ],
            "type" : "SCALAR"
        },
        {
            "bufferView" : 1,
            "componentType" : 5126,
            "count" : 692,
            "max" : [
                8.834577560424805,
                3.587264060974121,
                10.988508224487305
            ],
            "min" : [
                -10.476432800292969,
                -9.33006477355957,
                -8.262296676635742
            ],
            "type" : "VEC3"
        },
        {
            "bufferView" : 2,
            "componentType" : 5126,
            "count" : 692,
            "max" : [
                1.0,
                1.0,
                1.0
            ],
            "min" : [
                -1.0,
                -1.0,
                -0.9863821268081665
            ],
            "type" : "VEC3"
        },
        {
            "bufferView" : 3,
            "componentType" : 5126,
            "count" : 692,
            "max" : [
                0.6736109852790833,
                1.0
            ],
            "min" : [
                0.0,
                0.34375011920928955
            ],
            "type" : "VEC2"
        },
        {
            "bufferView" : 4,
            "componentType" : 5123,
            "count" : 456,
            "max" : [
                299
            ],
            "min" : [
                0
            ],
            "type" : "SCALAR"
        },
        {
            "bufferView" : 5,
            "componentType" : 5126,
            "count" : 300,
            "max" : [
                6.3638081550598145,
                2.106934070587158,
                6.023563385009766
            ],
            "min" : [
                -5.456668376922607,
                0.26460742950439453,
                -4.488953113555908
            ],
            "type" : "VEC3"
        },
        {
            "bufferView" : 6,
            "componentType" : 5126,
            "count" : 300,
            "max" : [
                0.99995356798172,
                0.8580849170684814,
                1.0
            ],
            "min" : [
                -0.9945946931838989,
                -0.22480371594429016,
                -0.9999805688858032
            ],
            "type" : "VEC3"
        },
        {
            "bufferView" : 7,
            "componentType" : 5126,
            "count" : 300,
            "max" : [
                0.0,
                1.0
            ],
            "min" : [
                0.0,
                1.0
            ],
            "type" : "VEC2"
        },
        {
            "bufferView" : 8,
            "componentType" : 5123,
            "count" : 3480,
            "max" : [
                2615
            ],
            "min" : [
                0
            ],
            "type" : "SCALAR"
        },
        {
            "bufferView" : 9,
            "componentType" : 5126,
            "count" : 2616,
            "max" : [
                5.729220867156982,
                7.83534574508667,
                6.554503917694092
            ],
            "min" : [
                -6.648111820220947,
                -0.0978783369064331,
                -4.965122699737549
            ],
            "type" : "VEC3"
        },
        {
            "bufferView" : 10,
            "componentType" : 5126,
            "count" : 2616,
            "max" : [
                0.9999987483024597,
                0.9998548626899719,
                0.999998927116394
            ],
            "min" : [
                -0.9999502301216125,
                -0.998508632183075,
                -0.9999992251396179
            ],
            "type" : "VEC3"
        },
        {
            "bufferView" : 11,
            "componentType" : 5126,
            "count" : 2616,
            "max" : [
                0.8229165077209473,
                1.0
            ],
            "min" : [
                0.0,
                0.27083343267440796
            ],
            "type" : "VEC2"
        },
        {
            "bufferView" : 12,
            "componentType" : 5123,
            "count" : 768,
            "max" : [
                751
            ],
            "min" : [
                0
            ],
            "type" : "SCALAR"
        },
        {
            "bufferView" : 13,
            "componentType" : 5126,
            "count" : 752,
            "max" : [
                4.665046691894531,
                7.204589366912842,
                6.457120418548584
            ],
            "min" : [
                -2.7079153060913086,
                1.2395896911621094,
                -0.9730124473571777
            ],
            "type" : "VEC3"
        },
        {
            "bufferView" : 14,
            "componentType" : 5126,
            "count" : 752,
            "max" : [
                0.9993436932563782,
                0.9999999403953552,
                0.9968191981315613
            ],
            "min" : [
                -0.9983393549919128,
                -0.9957903623580933,
                -0.9944025874137878
            ],
            "type" : "VEC3"
        },
        {
            "bufferView" : 15,
            "componentType" : 5126,
            "count" : 752,
            "max" : [
                0.5202206373214722,
                0.878472238779068
            ],
            "min" : [
                0.135416641831398,
                0.20354366302490234
            ],
            "type" : "VEC2"
        },
        {
            "bufferView" : 16,
            "componentType" : 5123,
            "count" : 20427,
            "max" : [
                14298
            ],
            "min" : [
                0
            ],
            "type" : "SCALAR"
        },
        {
            "bufferView" : 17,
            "componentType" : 5126,
            "count" : 14299,
            "max" : [
                6.98478364944458,
                4.566903114318848,
                9.155220031738281
            ],
            "min" : [
                -8.618474006652832,
                -1.7255433797836304,
                -6.447117328643799
            ],
            "type" : "VEC3"
        },
        {
            "bufferView" : 18,
            "componentType" : 5126,
            "count" : 14299,
            "max" : [
                1.0,
                1.0,
                1.0
            ],
            "min" : [
                -1.0,
                -1.0,
                -1.0
            ],
            "type" : "VEC3"
        },
        {
            "bufferView" : 19,
            "componentType" : 5126,
            "count" : 14299,
            "max" : [
                0.9149601459503174,
                1.0
            ],
            "min" : [
                -0.1749889999628067,
                0.15567797422409058
            ],
            "type" : "VEC2"
        },
        {
            "bufferView" : 20,
            "componentType" : 5123,
            "count" : 486,
            "max" : [
                323
            ],
            "min" : [
                0
            ],
            "type" : "SCALAR"
        },
        {
            "bufferView" : 21,
            "componentType" : 5126,
            "count" : 324,
            "max" : [
                3.3548269271850586,
                0.21835871040821075,
                2.214850425720215
            ],
            "min" : [
                -3.924687385559082,
                -0.7141200304031372,
                -1.8614938259124756
            ],
            "type" : "VEC3"
        },
        {
            "bufferView" : 22,
            "componentType" : 5126,
            "count" : 324,
            "max" : [
                0.10741171985864639,
                0.9999262690544128,
                0.41023337841033936
            ],
            "min" : [
                -0.39009183645248413,
                0.8243402242660522,
                -0.1911861151456833
            ],
            "type" : "VEC3"
        },
        {
            "bufferView" : 23,
            "componentType" : 5126,
            "count" : 324,
            "max" : [
                1.0,
                0.35173603892326355,
                0.18018561601638794,
                1.0
            ],
            "min" : [
                0.9207614660263062,
                -0.0808698907494545,
                -0.18693876266479492,
                1.0
            ],
            "type" : "VEC4"
        },
        {
            "bufferView" : 24,
            "componentType" : 5126,
            "count" : 324,
            "max" : [
                0.9003943204879761,
                0.9969547986984253
            ],
            "min" : [
                0.02995738387107849,
                -0.01025247573852539
            ],
            "type" : "VEC2"
        }
    ],
    "asset" : {
        "generator" : "Khronos Blender glTF 2.0 exporter",
        "version" : "2.0"
    },
    "bufferViews" : [
        {
            "buffer" : 0,
            "byteLength" : 1632,
            "byteOffset" : 0,
            "target" : 34963
        },
        {
            "buffer" : 0,
            "byteLength" : 8304,
            "byteOffset" : 1632,
            "target" : 34962
        },
        {
            "buffer" : 0,
            "byteLength" : 8304,
            "byteOffset" : 9936,
            "target" : 34962
        },
        {
            "buffer" : 0,
            "byteLength" : 5536,
            "byteOffset" : 18240,
            "target" : 34962
        },
        {
            "buffer" : 0,
            "byteLength" : 912,
            "byteOffset" : 23776,
            "target" : 34963
        },
        {
            "buffer" : 0,
            "byteLength" : 3600,
            "byteOffset" : 24688,
            "target" : 34962
        },
        {
            "buffer" : 0,
            "byteLength" : 3600,
            "byteOffset" : 28288,
            "target" : 34962
        },
        {
            "buffer" : 0,
            "byteLength" : 2400,
            "byteOffset" : 31888,
            "target" : 34962
        },
        {
            "buffer" : 0,
            "byteLength" : 6960,
            "byteOffset" : 34288,
            "target" : 34963
        },
        {
            "buffer" : 0,
            "byteLength" : 31392,
            "byteOffset" : 41248,
            "target" : 34962
        },
        {
            "buffer" : 0,
            "byteLength" : 31392,
            "byteOffset" : 72640,
            "target" : 34962
        },
        {
            "buffer" : 0,
            "byteLength" : 20928,
            "byteOffset" : 104032,
            "target" : 34962
        },
        {
            "buffer" : 0,
            "byteLength" : 1536,
            "byteOffset" : 124960,
            "target" : 34963
        },
        {
            "buffer" : 0,
            "byteLength" : 9024,
            "byteOffset" : 126496,
            "target" : 34962
        },
        {
            "buffer" : 0,
            "byteLength" : 9024,
            "byteOffset" : 135520,
            "target" : 34962
        },
        {
            "buffer" : 0,
            "byteLength" : 6016,
            "byteOffset" : 144544,
            "target" : 34962
        },
        {
            "buffer" : 0,
            "byteLength" : 40854,
            "byteOffset" : 150560,
            "target" : 34963
        },
        {
            "buffer" : 0,
            "byteLength" : 171588,
            "byteOffset" : 191416,
            "target" : 34962
        },
        {
            "buffer" : 0,
            "byteLength" : 171588,
            "byteOffset" : 363004,
            "target" : 34962
        },
        {
            "buffer" : 0,
            "byteLength" : 114392,
            "byteOffset" : 534592,
            "target" : 34962
        },
        {
            "buffer" : 0,
            "byteLength" : 972,
            "byteOffset" : 648984,
            "target" : 34963
        },
        {
            "buffer" : 0,
            "byteLength" : 3888,
            "byteOffset" : 649956,
            "target" : 34962
        },
        {
            "buffer" : 0,
            "byteLength" : 3888,
            "byteOffset" : 653844,
            "target" : 34962
        },
        {
            "buffer" : 0,
            "byteLength" : 5184,
            "byteOffset" : 657732,
            "target" : 34962
        },
        {
            "buffer" : 0,
            "byteLength" : 2592,
            "byteOffset" : 662916,
            "target" : 34962
        }
    ],
    "buffers" : [
        {
            "byteLength" : 665508,
            "uri" : "data:application/octet-stream;base64,"
        }
    ],
    "meshes" : [
        {
            "name" : "Grid",
            "primitives" : [
                {
                    "attributes" : {
                        "NORMAL" : 2,
                        "POSITION" : 1,
                        "TEXCOORD_0" : 3
                    },
                    "indices" : 0
                },
                {
                    "attributes" : {
                        "NORMAL" : 6,
                        "POSITION" : 5,
                        "TEXCOORD_0" : 7
                    },
                    "indices" : 4
                },
                {
                    "attributes" : {
                        "NORMAL" : 10,
                        "POSITION" : 9,
                        "TEXCOORD_0" : 11
                    },
                    "indices" : 8
                },
                {
                    "attributes" : {
                        "NORMAL" : 14,
                        "POSITION" : 13,
                        "TEXCOORD_0" : 15
                    },
                    "indices" : 12
                },
                {
                    "attributes" : {
                        "NORMAL" : 18,
                        "POSITION" : 17,
                        "TEXCOORD_0" : 19
                    },
                    "indices" : 16
                }
            ]
        },
        {
            "name" : "Grid.001",
            "primitives" : [
                {
                    "attributes" : {
                        "NORMAL" : 22,
                        "POSITION" : 21,
                        "TANGENT" : 23,
                        "TEXCOORD_0" : 24
                    },
                    "indices" : 20
                }
            ]
        }
    ],
    "nodes" : [
        {
            "mesh" : 0,
            "name" : "Grid",
            "translation" : [
                0.816836953163147,
                -0.26460719108581543,
                -1.3544774055480957
            ]
        },
        {
            "mesh" : 1,
            "name" : "Grid.001",
            "rotation" : [
                0.013257957063615322,
                0.0,
                -0.0,
                0.9999121427536011
            ],
            "translation" : [
                -2.00142765045166,
                1.0029559135437012,
                4.165459632873535
            ]
        }
    ],
    "scene" : 0,
    "scenes" : [
        {
            "name" : "Scene",
            "nodes" : [
                0,
                1
            ]
        }
    ]
}
