{
    "accessors" : [
        {
            "bufferView" : 0,
            "componentType" : 5123,
            "count" : 813,
            "max" : [
                690
            ],
            "min" : [
                0
            ],
            "type" : "SCALAR"
        },
        {
            "bufferView" : 1,
            "componentType" : 5126,
            "count" : 691,
            "max" : [
                8.834577560424805,
                3.587264060974121,
                10.988508224487305
            ],
            "min" : [
                -10.476432800292969,
                -9.33006477355957,
                -8.262296676635742
            ],
            "type" : "VEC3"
        },
        {
            "bufferView" : 2,
            "componentType" : 5126,
            "count" : 691,
            "max" : [
                1.0,
                1.0,
                1.0
            ],
            "min" : [
                -1.0,
                -1.0,
                -0.9863821268081665
            ],
            "type" : "VEC3"
        },
        {
            "bufferView" : 3,
            "componentType" : 5126,
            "count" : 691,
            "max" : [
                0.6736109852790833,
                1.0
            ],
            "min" : [
                0.0,
                0.34375011920928955
            ],
            "type" : "VEC2"
        },
        {
            "bufferView" : 4,
            "componentType" : 5123,
            "count" : 456,
            "max" : [
                301
            ],
            "min" : [
                0
            ],
            "type" : "SCALAR"
        },
        {
            "bufferView" : 5,
            "componentType" : 5126,
            "count" : 302,
            "max" : [
                6.3638081550598145,
                2.106934070587158,
                6.023563385009766
            ],
            "min" : [
                -5.456668376922607,
                0.26460739970207214,
                -4.488953113555908
            ],
            "type" : "VEC3"
        },
        {
            "bufferView" : 6,
            "componentType" : 5126,
            "count" : 302,
            "max" : [
                0.99995356798172,
                0.8580849170684814,
                1.0
            ],
            "min" : [
                -0.9945946931838989,
                -0.2248028665781021,
                -0.999980628490448
            ],
            "type" : "VEC3"
        },
        {
            "bufferView" : 7,
            "componentType" : 5126,
            "count" : 302,
            "max" : [
                0.0,
                1.0
            ],
            "min" : [
                0.0,
                1.0
            ],
            "type" : "VEC2"
        },
        {
            "bufferView" : 8,
            "componentType" : 5123,
            "count" : 3264,
            "max" : [
                2459
            ],
            "min" : [
                0
            ],
            "type" : "SCALAR"
        },
        {
            "bufferView" : 9,
            "componentType" : 5126,
            "count" : 2460,
            "max" : [
                5.729220867156982,
                7.83534574508667,
                6.444950580596924
            ],
            "min" : [
                -6.648111820220947,
                -0.0978783369064331,
                -4.965122222900391
            ],
            "type" : "VEC3"
        },
        {
            "bufferView" : 10,
            "componentType" : 5126,
            "count" : 2460,
            "max" : [
                0.9999988079071045,
                0.9998548626899719,
                0.999998927116394
            ],
            "min" : [
                -0.9998089671134949,
                -0.9957901835441589,
                -0.9999992251396179
            ],
            "type" : "VEC3"
        },
        {
            "bufferView" : 11,
            "componentType" : 5126,
            "count" : 2460,
            "max" : [
                0.8229165077209473,
                1.0
            ],
            "min" : [
                0.0,
                0.27083343267440796
            ],
            "type" : "VEC2"
        },
        {
            "bufferView" : 12,
            "componentType" : 5123,
            "count" : 768,
            "max" : [
                751
            ],
            "min" : [
                0
            ],
            "type" : "SCALAR"
        },
        {
            "bufferView" : 13,
            "componentType" : 5126,
            "count" : 752,
            "max" : [
                4.665046691894531,
                7.204589366912842,
                6.259960651397705
            ],
            "min" : [
                -2.7079033851623535,
                1.2562119960784912,
                -0.9730125665664673
            ],
            "type" : "VEC3"
        },
        {
            "bufferView" : 14,
            "componentType" : 5126,
            "count" : 752,
            "max" : [
                0.9995011687278748,
                0.9999998807907104,
                0.9968191981315613
            ],
            "min" : [
                -0.9957556128501892,
                -0.9957901835441589,
                -0.9987450242042542
            ],
            "type" : "VEC3"
        },
        {
            "bufferView" : 15,
            "componentType" : 5126,
            "count" : 752,
            "max" : [
                0.5202206373214722,
                0.878472238779068
            ],
            "min" : [
                0.135416641831398,
                0.20354366302490234
            ],
            "type" : "VEC2"
        },
        {
            "bufferView" : 16,
            "componentType" : 5123,
            "count" : 14259,
            "max" : [
                9444
            ],
            "min" : [
                0
            ],
            "type" : "SCALAR"
        },
        {
            "bufferView" : 17,
            "componentType" : 5126,
            "count" : 9445,
            "max" : [
                6.98478364944458,
                4.566903114318848,
                9.155220031738281
            ],
            "min" : [
                -8.618474006652832,
                -1.7255433797836304,
                -6.447117805480957
            ],
            "type" : "VEC3"
        },
        {
            "bufferView" : 18,
            "componentType" : 5126,
            "count" : 9445,
            "max" : [
                1.0,
                1.0,
                1.0
            ],
            "min" : [
                -1.0,
                -1.0,
                -1.0
            ],
            "type" : "VEC3"
        },
        {
            "bufferView" : 19,
            "componentType" : 5126,
            "count" : 9445,
            "max" : [
                0.9149601459503174,
                0.847222238779068
            ],
            "min" : [
                -0.1749889999628067,
                0.15567797422409058
            ],
            "type" : "VEC2"
        },
        {
            "bufferView" : 20,
            "componentType" : 5123,
            "count" : 486,
            "max" : [
                323
            ],
            "min" : [
                0
            ],
            "type" : "SCALAR"
        },
        {
            "bufferView" : 21,
            "componentType" : 5126,
            "count" : 324,
            "max" : [
                3.501518964767456,
                0.1376941204071045,
                2.2953405380249023
            ],
            "min" : [
                -4.0291337966918945,
                -0.6999449729919434,
                -1.9391813278198242
            ],
            "type" : "VEC3"
        },
        {
            "bufferView" : 22,
            "componentType" : 5126,
            "count" : 324,
            "max" : [
                0.10827722400426865,
                1.0,
                0.39918792247772217
            ],
            "min" : [
                -0.3746648132801056,
                0.8368245363235474,
                -0.20154015719890594
            ],
            "type" : "VEC3"
        },
        {
            "bufferView" : 23,
            "componentType" : 5126,
            "count" : 324,
            "max" : [
                0.9999980926513672,
                0.3737558126449585,
                0.08350128680467606,
                1.0
            ],
            "min" : [
                0.9237609505653381,
                -0.10844932496547699,
                -0.01206497848033905,
                1.0
            ],
            "type" : "VEC4"
        },
        {
            "bufferView" : 24,
            "componentType" : 5126,
            "count" : 324,
            "max" : [
                0.9771065711975098,
                1.09888706356287
            ],
            "min" : [
                -0.0033549964427948,
                0.09791815280914307
            ],
            "type" : "VEC2"
        }
    ],
    "asset" : {
        "generator" : "Khronos Blender glTF 2.0 exporter",
        "version" : "2.0"
    },
    "bufferViews" : [
        {
            "buffer" : 0,
            "byteLength" : 1626,
            "byteOffset" : 0,
            "target" : 34963
        },
        {
            "buffer" : 0,
            "byteLength" : 8292,
            "byteOffset" : 1628,
            "target" : 34962
        },
        {
            "buffer" : 0,
            "byteLength" : 8292,
            "byteOffset" : 9920,
            "target" : 34962
        },
        {
            "buffer" : 0,
            "byteLength" : 5528,
            "byteOffset" : 18212,
            "target" : 34962
        },
        {
            "buffer" : 0,
            "byteLength" : 912,
            "byteOffset" : 23740,
            "target" : 34963
        },
        {
            "buffer" : 0,
            "byteLength" : 3624,
            "byteOffset" : 24652,
            "target" : 34962
        },
        {
            "buffer" : 0,
            "byteLength" : 3624,
            "byteOffset" : 28276,
            "target" : 34962
        },
        {
            "buffer" : 0,
            "byteLength" : 2416,
            "byteOffset" : 31900,
            "target" : 34962
        },
        {
            "buffer" : 0,
            "byteLength" : 6528,
            "byteOffset" : 34316,
            "target" : 34963
        },
        {
            "buffer" : 0,
            "byteLength" : 29520,
            "byteOffset" : 40844,
            "target" : 34962
        },
        {
            "buffer" : 0,
            "byteLength" : 29520,
            "byteOffset" : 70364,
            "target" : 34962
        },
        {
            "buffer" : 0,
            "byteLength" : 19680,
            "byteOffset" : 99884,
            "target" : 34962
        },
        {
            "buffer" : 0,
            "byteLength" : 1536,
            "byteOffset" : 119564,
            "target" : 34963
        },
        {
            "buffer" : 0,
            "byteLength" : 9024,
            "byteOffset" : 121100,
            "target" : 34962
        },
        {
            "buffer" : 0,
            "byteLength" : 9024,
            "byteOffset" : 130124,
            "target" : 34962
        },
        {
            "buffer" : 0,
            "byteLength" : 6016,
            "byteOffset" : 139148,
            "target" : 34962
        },
        {
            "buffer" : 0,
            "byteLength" : 28518,
            "byteOffset" : 145164,
            "target" : 34963
        },
        {
            "buffer" : 0,
            "byteLength" : 113340,
            "byteOffset" : 173684,
            "target" : 34962
        },
        {
            "buffer" : 0,
            "byteLength" : 113340,
            "byteOffset" : 287024,
            "target" : 34962
        },
        {
            "buffer" : 0,
            "byteLength" : 75560,
            "byteOffset" : 400364,
            "target" : 34962
        },
        {
            "buffer" : 0,
            "byteLength" : 972,
            "byteOffset" : 475924,
            "target" : 34963
        },
        {
            "buffer" : 0,
            "byteLength" : 3888,
            "byteOffset" : 476896,
            "target" : 34962
        },
        {
            "buffer" : 0,
            "byteLength" : 3888,
            "byteOffset" : 480784,
            "target" : 34962
        },
        {
            "buffer" : 0,
            "byteLength" : 5184,
            "byteOffset" : 484672,
            "target" : 34962
        },
        {
            "buffer" : 0,
            "byteLength" : 2592,
            "byteOffset" : 489856,
            "target" : 34962
        }
    ],
    "buffers" : [
        {
            "byteLength" : 492448,
            "uri" : "data:application/octet-stream;base64,"
        }
    ],
    "meshes" : [
        {
            "name" : "Grid",
            "primitives" : [
                {
                    "attributes" : {
                        "NORMAL" : 2,
                        "POSITION" : 1,
                        "TEXCOORD_0" : 3
                    },
                    "indices" : 0
                },
                {
                    "attributes" : {
                        "NORMAL" : 6,
                        "POSITION" : 5,
                        "TEXCOORD_0" : 7
                    },
                    "indices" : 4
                },
                {
                    "attributes" : {
                        "NORMAL" : 10,
                        "POSITION" : 9,
                        "TEXCOORD_0" : 11
                    },
                    "indices" : 8
                },
                {
                    "attributes" : {
                        "NORMAL" : 14,
                        "POSITION" : 13,
                        "TEXCOORD_0" : 15
                    },
                    "indices" : 12
                },
                {
                    "attributes" : {
                        "NORMAL" : 18,
                        "POSITION" : 17,
                        "TEXCOORD_0" : 19
                    },
                    "indices" : 16
                }
            ]
        },
        {
            "name" : "Grid.001",
            "primitives" : [
                {
                    "attributes" : {
                        "NORMAL" : 22,
                        "POSITION" : 21,
                        "TANGENT" : 23,
                        "TEXCOORD_0" : 24
                    },
                    "indices" : 20
                }
            ]
        }
    ],
    "nodes" : [
        {
            "name" : "Camera",
            "rotation" : [
                0.6028310060501099,
                0.30001139640808105,
                -0.26207539439201355,
                0.6913063526153564
            ],
            "translation" : [
                16.49093246459961,
                5.712363243103027,
                14.954721450805664
            ]
        },
        {
            "mesh" : 0,
            "name" : "Grid",
            "translation" : [
                0.816836953163147,
                -0.26460719108581543,
                -1.3544774055480957
            ]
        },
        {
            "mesh" : 1,
            "name" : "Grid.001",
            "translation" : [
                -1.779715895652771,
                1.0029559135437012,
                3.7961957454681396
            ]
        },
        {
            "name" : "Lamp",
            "rotation" : [
                0.11874702572822571,
                0.6873318552970886,
                -0.2971668541431427,
                0.6520474553108215
            ],
            "scale" : [
                1.0,
                1.0,
                0.9999999403953552
            ],
            "translation" : [
                25.690959930419922,
                21.212162017822266,
                -1.0054539442062378
            ]
        }
    ],
    "scene" : 0,
    "scenes" : [
        {
            "name" : "Scene",
            "nodes" : [
                1,
                2,
                3,
                0
            ]
        }
    ]
}
