{
    "accessors" : [
        {
            "bufferView" : 0,
            "componentType" : 5123,
            "count" : 1608,
            "max" : [
                1181
            ],
            "min" : [
                0
            ],
            "type" : "SCALAR"
        },
        {
            "bufferView" : 1,
            "componentType" : 5126,
            "count" : 1182,
            "max" : [
                4.8782219886779785,
                3.617819309234619,
                2.4644248485565186
            ],
            "min" : [
                -5.948031902313232,
                -0.7152975797653198,
                -2.3007588386535645
            ],
            "type" : "VEC3"
        },
        {
            "bufferView" : 2,
            "componentType" : 5126,
            "count" : 1182,
            "max" : [
                0.97922283411026,
                0.9998911619186401,
                0.9998733997344971
            ],
            "min" : [
                -0.999945342540741,
                -0.9967939853668213,
                -0.9999799728393555
            ],
            "type" : "VEC3"
        },
        {
            "bufferView" : 3,
            "componentType" : 5126,
            "count" : 1182,
            "max" : [
                0.5072305798530579,
                1.0
            ],
            "min" : [
                0.0,
                0.49276942014694214
            ],
            "type" : "VEC2"
        },
        {
            "bufferView" : 4,
            "componentType" : 5123,
            "count" : 144,
            "max" : [
                111
            ],
            "min" : [
                0
            ],
            "type" : "SCALAR"
        },
        {
            "bufferView" : 5,
            "componentType" : 5126,
            "count" : 112,
            "max" : [
                4.644467353820801,
                0.9425707459449768,
                2.1267337799072266
            ],
            "min" : [
                -3.127779483795166,
                -0.8806557059288025,
                -2.1857571601867676
            ],
            "type" : "VEC3"
        },
        {
            "bufferView" : 6,
            "componentType" : 5126,
            "count" : 112,
            "max" : [
                0.9941385984420776,
                0.9999061226844788,
                0.9377586245536804
            ],
            "min" : [
                -0.9950851798057556,
                -0.8200233578681946,
                -0.9377586245536804
            ],
            "type" : "VEC3"
        },
        {
            "bufferView" : 7,
            "componentType" : 5126,
            "count" : 112,
            "max" : [
                0.5162175893783569,
                1.0
            ],
            "min" : [
                0.0,
                0.23442310094833374
            ],
            "type" : "VEC2"
        },
        {
            "bufferView" : 8,
            "componentType" : 5123,
            "count" : 816,
            "max" : [
                691
            ],
            "min" : [
                0
            ],
            "type" : "SCALAR"
        },
        {
            "bufferView" : 9,
            "componentType" : 5126,
            "count" : 692,
            "max" : [
                8.834577560424805,
                3.587264060974121,
                10.988508224487305
            ],
            "min" : [
                -10.476432800292969,
                -9.33006477355957,
                -8.262296676635742
            ],
            "type" : "VEC3"
        },
        {
            "bufferView" : 10,
            "componentType" : 5126,
            "count" : 692,
            "max" : [
                1.0,
                1.0,
                1.0
            ],
            "min" : [
                -1.0,
                -1.0,
                -0.9863821268081665
            ],
            "type" : "VEC3"
        },
        {
            "bufferView" : 11,
            "componentType" : 5126,
            "count" : 692,
            "max" : [
                0.6736109852790833,
                1.0
            ],
            "min" : [
                0.0,
                0.34375011920928955
            ],
            "type" : "VEC2"
        },
        {
            "bufferView" : 12,
            "componentType" : 5123,
            "count" : 456,
            "max" : [
                299
            ],
            "min" : [
                0
            ],
            "type" : "SCALAR"
        },
        {
            "bufferView" : 13,
            "componentType" : 5126,
            "count" : 300,
            "max" : [
                6.363807678222656,
                2.106934070587158,
                6.023563385009766
            ],
            "min" : [
                -5.456668853759766,
                0.26460742950439453,
                -4.48895263671875
            ],
            "type" : "VEC3"
        },
        {
            "bufferView" : 14,
            "componentType" : 5126,
            "count" : 300,
            "max" : [
                0.99995356798172,
                0.8580849170684814,
                1.0
            ],
            "min" : [
                -0.9945946931838989,
                -0.22480371594429016,
                -0.9999805688858032
            ],
            "type" : "VEC3"
        },
        {
            "bufferView" : 15,
            "componentType" : 5126,
            "count" : 300,
            "max" : [
                0.0,
                1.0
            ],
            "min" : [
                0.0,
                1.0
            ],
            "type" : "VEC2"
        },
        {
            "bufferView" : 16,
            "componentType" : 5123,
            "count" : 3588,
            "max" : [
                2689
            ],
            "min" : [
                0
            ],
            "type" : "SCALAR"
        },
        {
            "bufferView" : 17,
            "componentType" : 5126,
            "count" : 2690,
            "max" : [
                5.729220390319824,
                7.83534574508667,
                7.205984115600586
            ],
            "min" : [
                -6.6481122970581055,
                -0.0978783369064331,
                -4.965122222900391
            ],
            "type" : "VEC3"
        },
        {
            "bufferView" : 18,
            "componentType" : 5126,
            "count" : 2690,
            "max" : [
                0.9999987483024597,
                1.0,
                0.999998927116394
            ],
            "min" : [
                -0.9999501705169678,
                -0.9985086917877197,
                -0.9999992251396179
            ],
            "type" : "VEC3"
        },
        {
            "bufferView" : 19,
            "componentType" : 5126,
            "count" : 2690,
            "max" : [
                0.8229165077209473,
                1.0
            ],
            "min" : [
                0.0,
                0.20804017782211304
            ],
            "type" : "VEC2"
        },
        {
            "bufferView" : 20,
            "componentType" : 5123,
            "count" : 768,
            "max" : [
                751
            ],
            "min" : [
                0
            ],
            "type" : "SCALAR"
        },
        {
            "bufferView" : 21,
            "componentType" : 5126,
            "count" : 752,
            "max" : [
                4.665046691894531,
                7.204589366912842,
                6.457120418548584
            ],
            "min" : [
                -2.7079153060913086,
                1.2395896911621094,
                -0.9730124473571777
            ],
            "type" : "VEC3"
        },
        {
            "bufferView" : 22,
            "componentType" : 5126,
            "count" : 752,
            "max" : [
                0.9993436932563782,
                0.9999999403953552,
                0.9968191981315613
            ],
            "min" : [
                -0.9983393549919128,
                -0.9957903623580933,
                -0.9944025874137878
            ],
            "type" : "VEC3"
        },
        {
            "bufferView" : 23,
            "componentType" : 5126,
            "count" : 752,
            "max" : [
                0.5202206373214722,
                0.878472238779068
            ],
            "min" : [
                0.135416641831398,
                0.20354366302490234
            ],
            "type" : "VEC2"
        },
        {
            "bufferView" : 24,
            "componentType" : 5123,
            "count" : 20319,
            "max" : [
                14213
            ],
            "min" : [
                0
            ],
            "type" : "SCALAR"
        },
        {
            "bufferView" : 25,
            "componentType" : 5126,
            "count" : 14214,
            "max" : [
                6.984783172607422,
                4.566903114318848,
                9.155220031738281
            ],
            "min" : [
                -8.618474006652832,
                -1.7255433797836304,
                -6.447116851806641
            ],
            "type" : "VEC3"
        },
        {
            "bufferView" : 26,
            "componentType" : 5126,
            "count" : 14214,
            "max" : [
                1.0,
                1.0,
                1.0
            ],
            "min" : [
                -1.0,
                -1.0,
                -1.0
            ],
            "type" : "VEC3"
        },
        {
            "bufferView" : 27,
            "componentType" : 5126,
            "count" : 14214,
            "max" : [
                0.9149601459503174,
                1.0
            ],
            "min" : [
                -0.1749889999628067,
                0.15567797422409058
            ],
            "type" : "VEC2"
        },
        {
            "bufferView" : 28,
            "componentType" : 5123,
            "count" : 486,
            "max" : [
                323
            ],
            "min" : [
                0
            ],
            "type" : "SCALAR"
        },
        {
            "bufferView" : 29,
            "componentType" : 5126,
            "count" : 324,
            "max" : [
                3.3548269271850586,
                0.21835871040821075,
                2.214850425720215
            ],
            "min" : [
                -3.924687385559082,
                -0.7141200304031372,
                -1.8614938259124756
            ],
            "type" : "VEC3"
        },
        {
            "bufferView" : 30,
            "componentType" : 5126,
            "count" : 324,
            "max" : [
                0.10741171985864639,
                0.9999262690544128,
                0.41023337841033936
            ],
            "min" : [
                -0.39009183645248413,
                0.8243402242660522,
                -0.1911861151456833
            ],
            "type" : "VEC3"
        },
        {
            "bufferView" : 31,
            "componentType" : 5126,
            "count" : 324,
            "max" : [
                1.0,
                0.35173603892326355,
                0.18018561601638794,
                1.0
            ],
            "min" : [
                0.9207614660263062,
                -0.0808698907494545,
                -0.18693876266479492,
                1.0
            ],
            "type" : "VEC4"
        },
        {
            "bufferView" : 32,
            "componentType" : 5126,
            "count" : 324,
            "max" : [
                0.9003943204879761,
                0.9969547986984253
            ],
            "min" : [
                0.02995738387107849,
                -0.01025247573852539
            ],
            "type" : "VEC2"
        },
        {
            "bufferView" : 33,
            "componentType" : 5123,
            "count" : 2166,
            "max" : [
                1443
            ],
            "min" : [
                0
            ],
            "type" : "SCALAR"
        },
        {
            "bufferView" : 34,
            "componentType" : 5126,
            "count" : 1444,
            "max" : [
                7.165539741516113,
                2.997746229171753,
                6.2510457038879395
            ],
            "min" : [
                -1.8023266792297363,
                0.3081789016723633,
                -3.340322732925415
            ],
            "type" : "VEC3"
        },
        {
            "bufferView" : 35,
            "componentType" : 5126,
            "count" : 1444,
            "max" : [
                0.9951413869857788,
                0.999958872795105,
                0.9991087913513184
            ],
            "min" : [
                -0.9659228920936584,
                -0.06337659806013107,
                -0.8000926971435547
            ],
            "type" : "VEC3"
        },
        {
            "bufferView" : 36,
            "componentType" : 5126,
            "count" : 1444,
            "max" : [
                1.0,
                0.0,
                -0.0,
                -1.0
            ],
            "min" : [
                1.0,
                0.0,
                -0.0,
                -1.0
            ],
            "type" : "VEC4"
        },
        {
            "bufferView" : 37,
            "componentType" : 5126,
            "count" : 1444,
            "max" : [
                0.0,
                1.0
            ],
            "min" : [
                0.0,
                1.0
            ],
            "type" : "VEC2"
        }
    ],
    "asset" : {
        "generator" : "Khronos Blender glTF 2.0 exporter",
        "version" : "2.0"
    },
    "bufferViews" : [
        {
            "buffer" : 0,
            "byteLength" : 3216,
            "byteOffset" : 0,
            "target" : 34963
        },
        {
            "buffer" : 0,
            "byteLength" : 14184,
            "byteOffset" : 3216,
            "target" : 34962
        },
        {
            "buffer" : 0,
            "byteLength" : 14184,
            "byteOffset" : 17400,
            "target" : 34962
        },
        {
            "buffer" : 0,
            "byteLength" : 9456,
            "byteOffset" : 31584,
            "target" : 34962
        },
        {
            "buffer" : 0,
            "byteLength" : 288,
            "byteOffset" : 41040,
            "target" : 34963
        },
        {
            "buffer" : 0,
            "byteLength" : 1344,
            "byteOffset" : 41328,
            "target" : 34962
        },
        {
            "buffer" : 0,
            "byteLength" : 1344,
            "byteOffset" : 42672,
            "target" : 34962
        },
        {
            "buffer" : 0,
            "byteLength" : 896,
            "byteOffset" : 44016,
            "target" : 34962
        },
        {
            "buffer" : 0,
            "byteLength" : 1632,
            "byteOffset" : 44912,
            "target" : 34963
        },
        {
            "buffer" : 0,
            "byteLength" : 8304,
            "byteOffset" : 46544,
            "target" : 34962
        },
        {
            "buffer" : 0,
            "byteLength" : 8304,
            "byteOffset" : 54848,
            "target" : 34962
        },
        {
            "buffer" : 0,
            "byteLength" : 5536,
            "byteOffset" : 63152,
            "target" : 34962
        },
        {
            "buffer" : 0,
            "byteLength" : 912,
            "byteOffset" : 68688,
            "target" : 34963
        },
        {
            "buffer" : 0,
            "byteLength" : 3600,
            "byteOffset" : 69600,
            "target" : 34962
        },
        {
            "buffer" : 0,
            "byteLength" : 3600,
            "byteOffset" : 73200,
            "target" : 34962
        },
        {
            "buffer" : 0,
            "byteLength" : 2400,
            "byteOffset" : 76800,
            "target" : 34962
        },
        {
            "buffer" : 0,
            "byteLength" : 7176,
            "byteOffset" : 79200,
            "target" : 34963
        },
        {
            "buffer" : 0,
            "byteLength" : 32280,
            "byteOffset" : 86376,
            "target" : 34962
        },
        {
            "buffer" : 0,
            "byteLength" : 32280,
            "byteOffset" : 118656,
            "target" : 34962
        },
        {
            "buffer" : 0,
            "byteLength" : 21520,
            "byteOffset" : 150936,
            "target" : 34962
        },
        {
            "buffer" : 0,
            "byteLength" : 1536,
            "byteOffset" : 172456,
            "target" : 34963
        },
        {
            "buffer" : 0,
            "byteLength" : 9024,
            "byteOffset" : 173992,
            "target" : 34962
        },
        {
            "buffer" : 0,
            "byteLength" : 9024,
            "byteOffset" : 183016,
            "target" : 34962
        },
        {
            "buffer" : 0,
            "byteLength" : 6016,
            "byteOffset" : 192040,
            "target" : 34962
        },
        {
            "buffer" : 0,
            "byteLength" : 40638,
            "byteOffset" : 198056,
            "target" : 34963
        },
        {
            "buffer" : 0,
            "byteLength" : 170568,
            "byteOffset" : 238696,
            "target" : 34962
        },
        {
            "buffer" : 0,
            "byteLength" : 170568,
            "byteOffset" : 409264,
            "target" : 34962
        },
        {
            "buffer" : 0,
            "byteLength" : 113712,
            "byteOffset" : 579832,
            "target" : 34962
        },
        {
            "buffer" : 0,
            "byteLength" : 972,
            "byteOffset" : 693544,
            "target" : 34963
        },
        {
            "buffer" : 0,
            "byteLength" : 3888,
            "byteOffset" : 694516,
            "target" : 34962
        },
        {
            "buffer" : 0,
            "byteLength" : 3888,
            "byteOffset" : 698404,
            "target" : 34962
        },
        {
            "buffer" : 0,
            "byteLength" : 5184,
            "byteOffset" : 702292,
            "target" : 34962
        },
        {
            "buffer" : 0,
            "byteLength" : 2592,
            "byteOffset" : 707476,
            "target" : 34962
        },
        {
            "buffer" : 0,
            "byteLength" : 4332,
            "byteOffset" : 710068,
            "target" : 34963
        },
        {
            "buffer" : 0,
            "byteLength" : 17328,
            "byteOffset" : 714400,
            "target" : 34962
        },
        {
            "buffer" : 0,
            "byteLength" : 17328,
            "byteOffset" : 731728,
            "target" : 34962
        },
        {
            "buffer" : 0,
            "byteLength" : 23104,
            "byteOffset" : 749056,
            "target" : 34962
        },
        {
            "buffer" : 0,
            "byteLength" : 11552,
            "byteOffset" : 772160,
            "target" : 34962
        }
    ],
    "buffers" : [
        {
            "byteLength" : 783712,
            "uri" : "data:application/octet-stream;base64,"
        }
    ],
    "meshes" : [
        {
            "name" : "Cube.001",
            "primitives" : [
                {
                    "attributes" : {
                        "NORMAL" : 2,
                        "POSITION" : 1,
                        "TEXCOORD_0" : 3
                    },
                    "indices" : 0
                },
                {
                    "attributes" : {
                        "NORMAL" : 6,
                        "POSITION" : 5,
                        "TEXCOORD_0" : 7
                    },
                    "indices" : 4
                }
            ]
        },
        {
            "name" : "Grid",
            "primitives" : [
                {
                    "attributes" : {
                        "NORMAL" : 10,
                        "POSITION" : 9,
                        "TEXCOORD_0" : 11
                    },
                    "indices" : 8
                },
                {
                    "attributes" : {
                        "NORMAL" : 14,
                        "POSITION" : 13,
                        "TEXCOORD_0" : 15
                    },
                    "indices" : 12
                },
                {
                    "attributes" : {
                        "NORMAL" : 18,
                        "POSITION" : 17,
                        "TEXCOORD_0" : 19
                    },
                    "indices" : 16
                },
                {
                    "attributes" : {
                        "NORMAL" : 22,
                        "POSITION" : 21,
                        "TEXCOORD_0" : 23
                    },
                    "indices" : 20
                },
                {
                    "attributes" : {
                        "NORMAL" : 26,
                        "POSITION" : 25,
                        "TEXCOORD_0" : 27
                    },
                    "indices" : 24
                }
            ]
        },
        {
            "name" : "Grid.001",
            "primitives" : [
                {
                    "attributes" : {
                        "NORMAL" : 30,
                        "POSITION" : 29,
                        "TANGENT" : 31,
                        "TEXCOORD_0" : 32
                    },
                    "indices" : 28
                }
            ]
        },
        {
            "name" : "Grid.004",
            "primitives" : [
                {
                    "attributes" : {
                        "NORMAL" : 35,
                        "POSITION" : 34,
                        "TANGENT" : 36,
                        "TEXCOORD_0" : 37
                    },
                    "indices" : 33
                }
            ]
        }
    ],
    "nodes" : [
        {
            "mesh" : 0,
            "name" : "Cube"
        },
        {
            "mesh" : 1,
            "name" : "Grid",
            "translation" : [
                0.816836953163147,
                -0.26460719108581543,
                -1.3544774055480957
            ]
        },
        {
            "mesh" : 2,
            "name" : "Grid.001",
            "rotation" : [
                0.013257957063615322,
                0.0,
                -0.0,
                0.9999121427536011
            ],
            "translation" : [
                -2.00142765045166,
                1.0029559135437012,
                4.165459632873535
            ]
        },
        {
            "mesh" : 3,
            "name" : "Grid.002",
            "rotation" : [
                0.010668163187801838,
                0.004200485069304705,
                0.003608490340411663,
                0.9999278783798218
            ],
            "scale" : [
                1.0,
                0.9999999403953552,
                1.0
            ],
            "translation" : [
                1.3019993305206299,
                -0.1323690116405487,
                -1.3516514301300049
            ]
        }
    ],
    "scene" : 0,
    "scenes" : [
        {
            "name" : "Scene",
            "nodes" : [
                0,
                1,
                3,
                2
            ]
        }
    ]
}
