{
    "accessors" : [
        {
            "bufferView" : 0,
            "componentType" : 5123,
            "count" : 1608,
            "max" : [
                1181
            ],
            "min" : [
                0
            ],
            "type" : "SCALAR"
        },
        {
            "bufferView" : 1,
            "componentType" : 5126,
            "count" : 1182,
            "max" : [
                4.8782219886779785,
                3.617819309234619,
                2.4644248485565186
            ],
            "min" : [
                -5.948031902313232,
                -0.7152975797653198,
                -2.3007588386535645
            ],
            "type" : "VEC3"
        },
        {
            "bufferView" : 2,
            "componentType" : 5126,
            "count" : 1182,
            "max" : [
                0.97922283411026,
                0.9998911619186401,
                0.9998733997344971
            ],
            "min" : [
                -0.999945342540741,
                -0.9967939853668213,
                -0.9999799728393555
            ],
            "type" : "VEC3"
        },
        {
            "bufferView" : 3,
            "componentType" : 5126,
            "count" : 1182,
            "max" : [
                0.5072305798530579,
                1.0
            ],
            "min" : [
                0.0,
                0.49276942014694214
            ],
            "type" : "VEC2"
        },
        {
            "bufferView" : 4,
            "componentType" : 5123,
            "count" : 144,
            "max" : [
                111
            ],
            "min" : [
                0
            ],
            "type" : "SCALAR"
        },
        {
            "bufferView" : 5,
            "componentType" : 5126,
            "count" : 112,
            "max" : [
                4.644467353820801,
                0.9425707459449768,
                2.1267337799072266
            ],
            "min" : [
                -3.127779483795166,
                -0.8806557059288025,
                -2.1857571601867676
            ],
            "type" : "VEC3"
        },
        {
            "bufferView" : 6,
            "componentType" : 5126,
            "count" : 112,
            "max" : [
                0.9941385984420776,
                0.9999061226844788,
                0.9377586245536804
            ],
            "min" : [
                -0.9950851798057556,
                -0.8200233578681946,
                -0.9377586245536804
            ],
            "type" : "VEC3"
        },
        {
            "bufferView" : 7,
            "componentType" : 5126,
            "count" : 112,
            "max" : [
                0.5162175893783569,
                1.0
            ],
            "min" : [
                0.0,
                0.23442310094833374
            ],
            "type" : "VEC2"
        },
        {
            "bufferView" : 8,
            "componentType" : 5123,
            "count" : 759,
            "max" : [
                650
            ],
            "min" : [
                0
            ],
            "type" : "SCALAR"
        },
        {
            "bufferView" : 9,
            "componentType" : 5126,
            "count" : 651,
            "max" : [
                8.834577560424805,
                2.5064125061035156,
                10.988508224487305
            ],
            "min" : [
                -10.476432800292969,
                -9.761080741882324,
                -8.262296676635742
            ],
            "type" : "VEC3"
        },
        {
            "bufferView" : 10,
            "componentType" : 5126,
            "count" : 651,
            "max" : [
                0.995180070400238,
                0.9992374181747437,
                0.9993610978126526
            ],
            "min" : [
                -1.0,
                -0.9991545677185059,
                -0.9863821268081665
            ],
            "type" : "VEC3"
        },
        {
            "bufferView" : 11,
            "componentType" : 5126,
            "count" : 651,
            "max" : [
                0.6736109852790833,
                1.0
            ],
            "min" : [
                0.0,
                0.34375011920928955
            ],
            "type" : "VEC2"
        },
        {
            "bufferView" : 12,
            "componentType" : 5126,
            "count" : 651,
            "max" : [
                0.0,
                1.0
            ],
            "min" : [
                0.0,
                1.0
            ],
            "type" : "VEC2"
        },
        {
            "bufferView" : 13,
            "componentType" : 5123,
            "count" : 6,
            "max" : [
                3
            ],
            "min" : [
                0
            ],
            "type" : "SCALAR"
        },
        {
            "bufferView" : 14,
            "componentType" : 5126,
            "count" : 4,
            "max" : [
                2.7093870639801025,
                3.544485569000244,
                -1.0480198860168457
            ],
            "min" : [
                1.799161434173584,
                1.477552890777588,
                -1.3422579765319824
            ],
            "type" : "VEC3"
        },
        {
            "bufferView" : 15,
            "componentType" : 5126,
            "count" : 4,
            "max" : [
                -0.050519637763500214,
                0.12085477262735367,
                0.9913837909698486
            ],
            "min" : [
                -0.050519637763500214,
                0.12085477262735367,
                0.9913837909698486
            ],
            "type" : "VEC3"
        },
        {
            "bufferView" : 16,
            "componentType" : 5126,
            "count" : 4,
            "max" : [
                0.1319444179534912,
                0.5312500596046448
            ],
            "min" : [
                0.1319444179534912,
                0.5312500596046448
            ],
            "type" : "VEC2"
        },
        {
            "bufferView" : 17,
            "componentType" : 5126,
            "count" : 4,
            "max" : [
                0.0,
                1.0
            ],
            "min" : [
                0.0,
                1.0
            ],
            "type" : "VEC2"
        },
        {
            "bufferView" : 18,
            "componentType" : 5123,
            "count" : 774,
            "max" : [
                749
            ],
            "min" : [
                0
            ],
            "type" : "SCALAR"
        },
        {
            "bufferView" : 19,
            "componentType" : 5126,
            "count" : 750,
            "max" : [
                4.665046691894531,
                7.182718753814697,
                6.721850395202637
            ],
            "min" : [
                -1.9992554187774658,
                1.2628328800201416,
                -0.8725953698158264
            ],
            "type" : "VEC3"
        },
        {
            "bufferView" : 20,
            "componentType" : 5126,
            "count" : 750,
            "max" : [
                0.9993436932563782,
                0.9966788291931152,
                1.0
            ],
            "min" : [
                -0.9957557916641235,
                -0.987592339515686,
                -0.9977133274078369
            ],
            "type" : "VEC3"
        },
        {
            "bufferView" : 21,
            "componentType" : 5126,
            "count" : 750,
            "max" : [
                0.5202206373214722,
                0.878472238779068
            ],
            "min" : [
                0.135416641831398,
                0.20354366302490234
            ],
            "type" : "VEC2"
        },
        {
            "bufferView" : 22,
            "componentType" : 5126,
            "count" : 750,
            "max" : [
                0.0,
                1.0
            ],
            "min" : [
                0.0,
                1.0
            ],
            "type" : "VEC2"
        },
        {
            "bufferView" : 23,
            "componentType" : 5123,
            "count" : 21393,
            "max" : [
                12577
            ],
            "min" : [
                0
            ],
            "type" : "SCALAR"
        },
        {
            "bufferView" : 24,
            "componentType" : 5126,
            "count" : 12578,
            "max" : [
                6.984783172607422,
                7.697965145111084,
                9.155220031738281
            ],
            "min" : [
                -8.618474006652832,
                -5.994950294494629,
                -6.416055679321289
            ],
            "type" : "VEC3"
        },
        {
            "bufferView" : 25,
            "componentType" : 5126,
            "count" : 12578,
            "max" : [
                1.0,
                1.0,
                1.0
            ],
            "min" : [
                -1.0,
                -1.0,
                -1.0
            ],
            "type" : "VEC3"
        },
        {
            "bufferView" : 26,
            "componentType" : 5126,
            "count" : 12578,
            "max" : [
                0.9992650151252747,
                1.0
            ],
            "min" : [
                -0.0018416643142700195,
                -0.00421142578125
            ],
            "type" : "VEC2"
        },
        {
            "bufferView" : 27,
            "componentType" : 5126,
            "count" : 12578,
            "max" : [
                0.9936466217041016,
                1.0
            ],
            "min" : [
                0.0,
                0.06447070837020874
            ],
            "type" : "VEC2"
        },
        {
            "bufferView" : 28,
            "componentType" : 5123,
            "count" : 486,
            "max" : [
                323
            ],
            "min" : [
                0
            ],
            "type" : "SCALAR"
        },
        {
            "bufferView" : 29,
            "componentType" : 5126,
            "count" : 324,
            "max" : [
                3.3548269271850586,
                0.3779761791229248,
                2.214850425720215
            ],
            "min" : [
                -3.924687385559082,
                -0.7141200304031372,
                -1.8614938259124756
            ],
            "type" : "VEC3"
        },
        {
            "bufferView" : 30,
            "componentType" : 5126,
            "count" : 324,
            "max" : [
                0.21033897995948792,
                0.999919593334198,
                0.41023337841033936
            ],
            "min" : [
                -0.39009183645248413,
                0.8243402242660522,
                -0.3236631155014038
            ],
            "type" : "VEC3"
        },
        {
            "bufferView" : 31,
            "componentType" : 5126,
            "count" : 324,
            "max" : [
                1.0,
                0.35173603892326355,
                0.18018561601638794,
                1.0
            ],
            "min" : [
                0.9207614660263062,
                -0.20951619744300842,
                -0.18693327903747559,
                1.0
            ],
            "type" : "VEC4"
        },
        {
            "bufferView" : 32,
            "componentType" : 5126,
            "count" : 324,
            "max" : [
                0.9003943204879761,
                0.9969547986984253
            ],
            "min" : [
                0.02995738387107849,
                -0.01025247573852539
            ],
            "type" : "VEC2"
        },
        {
            "bufferView" : 33,
            "componentType" : 5123,
            "count" : 2166,
            "max" : [
                1443
            ],
            "min" : [
                0
            ],
            "type" : "SCALAR"
        },
        {
            "bufferView" : 34,
            "componentType" : 5126,
            "count" : 1444,
            "max" : [
                7.165539741516113,
                2.997746229171753,
                6.2510457038879395
            ],
            "min" : [
                -1.8023266792297363,
                0.3081789016723633,
                -3.340322732925415
            ],
            "type" : "VEC3"
        },
        {
            "bufferView" : 35,
            "componentType" : 5126,
            "count" : 1444,
            "max" : [
                0.9951413869857788,
                0.999958872795105,
                0.9991087913513184
            ],
            "min" : [
                -0.9659228920936584,
                -0.06337659806013107,
                -0.8000926971435547
            ],
            "type" : "VEC3"
        },
        {
            "bufferView" : 36,
            "componentType" : 5126,
            "count" : 1444,
            "max" : [
                1.0,
                0.0,
                -0.0,
                -1.0
            ],
            "min" : [
                1.0,
                0.0,
                -0.0,
                -1.0
            ],
            "type" : "VEC4"
        },
        {
            "bufferView" : 37,
            "componentType" : 5126,
            "count" : 1444,
            "max" : [
                0.0,
                1.0
            ],
            "min" : [
                0.0,
                1.0
            ],
            "type" : "VEC2"
        }
    ],
    "asset" : {
        "generator" : "Khronos Blender glTF 2.0 exporter",
        "version" : "2.0"
    },
    "bufferViews" : [
        {
            "buffer" : 0,
            "byteLength" : 3216,
            "byteOffset" : 0,
            "target" : 34963
        },
        {
            "buffer" : 0,
            "byteLength" : 14184,
            "byteOffset" : 3216,
            "target" : 34962
        },
        {
            "buffer" : 0,
            "byteLength" : 14184,
            "byteOffset" : 17400,
            "target" : 34962
        },
        {
            "buffer" : 0,
            "byteLength" : 9456,
            "byteOffset" : 31584,
            "target" : 34962
        },
        {
            "buffer" : 0,
            "byteLength" : 288,
            "byteOffset" : 41040,
            "target" : 34963
        },
        {
            "buffer" : 0,
            "byteLength" : 1344,
            "byteOffset" : 41328,
            "target" : 34962
        },
        {
            "buffer" : 0,
            "byteLength" : 1344,
            "byteOffset" : 42672,
            "target" : 34962
        },
        {
            "buffer" : 0,
            "byteLength" : 896,
            "byteOffset" : 44016,
            "target" : 34962
        },
        {
            "buffer" : 0,
            "byteLength" : 1518,
            "byteOffset" : 44912,
            "target" : 34963
        },
        {
            "buffer" : 0,
            "byteLength" : 7812,
            "byteOffset" : 46432,
            "target" : 34962
        },
        {
            "buffer" : 0,
            "byteLength" : 7812,
            "byteOffset" : 54244,
            "target" : 34962
        },
        {
            "buffer" : 0,
            "byteLength" : 5208,
            "byteOffset" : 62056,
            "target" : 34962
        },
        {
            "buffer" : 0,
            "byteLength" : 5208,
            "byteOffset" : 67264,
            "target" : 34962
        },
        {
            "buffer" : 0,
            "byteLength" : 12,
            "byteOffset" : 72472,
            "target" : 34963
        },
        {
            "buffer" : 0,
            "byteLength" : 48,
            "byteOffset" : 72484,
            "target" : 34962
        },
        {
            "buffer" : 0,
            "byteLength" : 48,
            "byteOffset" : 72532,
            "target" : 34962
        },
        {
            "buffer" : 0,
            "byteLength" : 32,
            "byteOffset" : 72580,
            "target" : 34962
        },
        {
            "buffer" : 0,
            "byteLength" : 32,
            "byteOffset" : 72612,
            "target" : 34962
        },
        {
            "buffer" : 0,
            "byteLength" : 1548,
            "byteOffset" : 72644,
            "target" : 34963
        },
        {
            "buffer" : 0,
            "byteLength" : 9000,
            "byteOffset" : 74192,
            "target" : 34962
        },
        {
            "buffer" : 0,
            "byteLength" : 9000,
            "byteOffset" : 83192,
            "target" : 34962
        },
        {
            "buffer" : 0,
            "byteLength" : 6000,
            "byteOffset" : 92192,
            "target" : 34962
        },
        {
            "buffer" : 0,
            "byteLength" : 6000,
            "byteOffset" : 98192,
            "target" : 34962
        },
        {
            "buffer" : 0,
            "byteLength" : 42786,
            "byteOffset" : 104192,
            "target" : 34963
        },
        {
            "buffer" : 0,
            "byteLength" : 150936,
            "byteOffset" : 146980,
            "target" : 34962
        },
        {
            "buffer" : 0,
            "byteLength" : 150936,
            "byteOffset" : 297916,
            "target" : 34962
        },
        {
            "buffer" : 0,
            "byteLength" : 100624,
            "byteOffset" : 448852,
            "target" : 34962
        },
        {
            "buffer" : 0,
            "byteLength" : 100624,
            "byteOffset" : 549476,
            "target" : 34962
        },
        {
            "buffer" : 0,
            "byteLength" : 972,
            "byteOffset" : 650100,
            "target" : 34963
        },
        {
            "buffer" : 0,
            "byteLength" : 3888,
            "byteOffset" : 651072,
            "target" : 34962
        },
        {
            "buffer" : 0,
            "byteLength" : 3888,
            "byteOffset" : 654960,
            "target" : 34962
        },
        {
            "buffer" : 0,
            "byteLength" : 5184,
            "byteOffset" : 658848,
            "target" : 34962
        },
        {
            "buffer" : 0,
            "byteLength" : 2592,
            "byteOffset" : 664032,
            "target" : 34962
        },
        {
            "buffer" : 0,
            "byteLength" : 4332,
            "byteOffset" : 666624,
            "target" : 34963
        },
        {
            "buffer" : 0,
            "byteLength" : 17328,
            "byteOffset" : 670956,
            "target" : 34962
        },
        {
            "buffer" : 0,
            "byteLength" : 17328,
            "byteOffset" : 688284,
            "target" : 34962
        },
        {
            "buffer" : 0,
            "byteLength" : 23104,
            "byteOffset" : 705612,
            "target" : 34962
        },
        {
            "buffer" : 0,
            "byteLength" : 11552,
            "byteOffset" : 728716,
            "target" : 34962
        }
    ],
    "buffers" : [
        {
            "byteLength" : 740268,
            "uri" : "data:application/octet-stream;base64,"
        }
    ],
    "meshes" : [
        {
            "name" : "Cube.001",
            "primitives" : [
                {
                    "attributes" : {
                        "NORMAL" : 2,
                        "POSITION" : 1,
                        "TEXCOORD_0" : 3
                    },
                    "indices" : 0
                },
                {
                    "attributes" : {
                        "NORMAL" : 6,
                        "POSITION" : 5,
                        "TEXCOORD_0" : 7
                    },
                    "indices" : 4
                }
            ]
        },
        {
            "name" : "Grid",
            "primitives" : [
                {
                    "attributes" : {
                        "NORMAL" : 10,
                        "POSITION" : 9,
                        "TEXCOORD_0" : 11,
                        "TEXCOORD_1" : 12
                    },
                    "indices" : 8
                },
                {
                    "attributes" : {
                        "NORMAL" : 15,
                        "POSITION" : 14,
                        "TEXCOORD_0" : 16,
                        "TEXCOORD_1" : 17
                    },
                    "indices" : 13
                },
                {
                    "attributes" : {
                        "NORMAL" : 20,
                        "POSITION" : 19,
                        "TEXCOORD_0" : 21,
                        "TEXCOORD_1" : 22
                    },
                    "indices" : 18
                },
                {
                    "attributes" : {
                        "NORMAL" : 25,
                        "POSITION" : 24,
                        "TEXCOORD_0" : 26,
                        "TEXCOORD_1" : 27
                    },
                    "indices" : 23
                }
            ]
        },
        {
            "name" : "Grid.001",
            "primitives" : [
                {
                    "attributes" : {
                        "NORMAL" : 30,
                        "POSITION" : 29,
                        "TANGENT" : 31,
                        "TEXCOORD_0" : 32
                    },
                    "indices" : 28
                }
            ]
        },
        {
            "name" : "Grid.004",
            "primitives" : [
                {
                    "attributes" : {
                        "NORMAL" : 35,
                        "POSITION" : 34,
                        "TANGENT" : 36,
                        "TEXCOORD_0" : 37
                    },
                    "indices" : 33
                }
            ]
        }
    ],
    "nodes" : [
        {
            "mesh" : 0,
            "name" : "Cube"
        },
        {
            "mesh" : 1,
            "name" : "Grid",
            "translation" : [
                0.816836953163147,
                -0.26460719108581543,
                -1.3544774055480957
            ]
        },
        {
            "mesh" : 2,
            "name" : "Grid.001",
            "rotation" : [
                0.013257957063615322,
                0.0,
                -0.0,
                0.9999121427536011
            ],
            "translation" : [
                -2.00142765045166,
                1.0029559135437012,
                4.165459632873535
            ]
        },
        {
            "mesh" : 3,
            "name" : "Grid.002",
            "rotation" : [
                0.010668163187801838,
                0.004200485069304705,
                0.003608490340411663,
                0.9999278783798218
            ],
            "scale" : [
                1.0,
                0.9999999403953552,
                1.0
            ],
            "translation" : [
                1.3019993305206299,
                -0.1323690116405487,
                -1.3516514301300049
            ]
        },
        {
            "name" : "Sun",
            "rotation" : [
                -0.17397022247314453,
                0.07680056989192963,
                0.23095425963401794,
                0.9541992545127869
            ],
            "scale" : [
                1.0,
                0.9999999403953552,
                1.0
            ],
            "translation" : [
                3.1867194175720215,
                -0.02048472873866558,
                -6.0249176025390625
            ]
        }
    ],
    "scene" : 0,
    "scenes" : [
        {
            "name" : "Scene",
            "nodes" : [
                4,
                0,
                1,
                3,
                2
            ]
        }
    ]
}
